# xmcd
#
# Track frame offsets: 
#        150
#        17217
#        35039
#        70374
#        87845
#        106952
#        124474
#        137413
#        151129
#        163921
#        179519
#        190970
#        201127
#        214334
#        224495
#
# Disc length: 3207 seconds
#
# Revision: 0
# Processed by: cddbd v1.5.2PL0 Copyright (c) Steve Scherf et al.
# Submitted via: ExactAudioCopy v0.99pb5
#
DISCID=e60c850f
DTITLE=Wojciech Skowronski - Od piosenki do piosenki
DYEAR=2006
DGENRE=Blues
TTITLE0=01.Kominiarz Johnny
TTITLE1=02.Blues to zawsze blues jest
TTITLE2=03.Alabama
TTITLE3=04.Poczulem bluesa
TTITLE4=05.Ja to sie cziesze byle czym
TTITLE5=06.Caly swiat jasnieje
TTITLE6=07.Fortepian i ja
TTITLE7=08.Lecz glupiego zycia zal
TTITLE8=09.Ludzie,cos mi tutaj nie gra
TTITLE9=10.Rowny byl gosc
TTITLE10=11.Wolaj czekaj wspomnij szukaj
TTITLE11=12.Rock and rolla kazdy zna
TTITLE12=13.Hallelujah
TTITLE13=14.Mialem sen
TTITLE14=15.Nas trzech
EXTD=
EXTT0=
EXTT1=
EXTT2=
EXTT3=
EXTT4=
EXTT5=
EXTT6=
EXTT7=
EXTT8=
EXTT9=
EXTT10=
EXTT11=
EXTT12=
EXTT13=
EXTT14=
PLAYORDER=
